<?xml version="1.0" encoding="UTF-8"?>
<svg id="Capa_2" data-name="Capa 2" xmlns="http://www.w3.org/2000/svg" viewBox="0 0 152 136.8">
  <defs>
    <style>
      .cls-1 {
        fill: #e3b23c;
      }
    </style>
  </defs>
  <g id="Capa_1-2" data-name="Capa 1">
    <path class="cls-1" d="M133,136.8H19c-10.48,0-19-8.52-19-19s8.52-19,19-19h114c10.48,0,19,8.52,19,19s-8.52,19-19,19ZM19,114c-2.1,0-3.8,1.7-3.8,3.8s1.7,3.8,3.8,3.8h114c2.1,0,3.8-1.7,3.8-3.8s-1.7-3.8-3.8-3.8H19ZM76,90.18c-5.44,0-10.71-1.95-14.84-5.49l-6.82-5.84c-2.87-2.46-7.03-2.46-9.89,0l-6.29,5.39c-8.91,7.63-22.04,7.3-30.54-.78l-5.25-4.99c-3.04-2.89-3.17-7.7-.28-10.74,2.89-3.04,7.7-3.17,10.74-.28l5.25,4.99c2.83,2.69,7.21,2.8,10.18.26l6.29-5.39c4.13-3.54,9.4-5.49,14.84-5.49s10.71,1.95,14.84,5.49l6.82,5.84c2.87,2.46,7.03,2.46,9.89,0l6.82-5.84c4.13-3.54,9.4-5.49,14.84-5.49s10.71,1.95,14.84,5.49l6.29,5.39c2.97,2.54,7.35,2.43,10.18-.26l5.26-4.99c3.04-2.89,7.85-2.77,10.74.28,2.89,3.04,2.77,7.85-.28,10.74l-5.25,4.99c-8.5,8.08-21.63,8.41-30.54.78l-6.29-5.39c-2.87-2.46-7.03-2.46-9.89,0l-6.82,5.84c-4.13,3.54-9.4,5.49-14.84,5.49ZM129.2,53.2H22.8c-7.41,0-14.27-3.78-17.48-9.63-2.82-5.16-2.55-11.09.76-16.27C14.04,14.85,32.63,0,76,0s61.96,14.85,69.91,27.3c3.31,5.18,3.59,11.11.76,16.27-3.21,5.85-10.07,9.63-17.48,9.63ZM76,15.2c-16.87,0-30.66,2.41-41,7.16-7.25,3.33-12.66,7.74-16.1,13.13-.29.45-.29.66-.29.66.07.47,1.63,1.85,4.2,1.85h106.4c2.57,0,4.13-1.38,4.2-1.85,0,0,0-.21-.29-.66-3.44-5.38-8.86-9.8-16.1-13.13-10.34-4.75-24.13-7.16-41-7.16Z"/>
  </g>
</svg>