<?xml version="1.0" encoding="UTF-8"?>
<svg id="Capa_2" data-name="Capa 2" xmlns="http://www.w3.org/2000/svg" viewBox="0 0 590.52 142.67">
  <defs>
    <style>
      .cls-1 {
        fill: #e3b23c;
      }

      .cls-2 {
        fill: #f7f4e9;
      }
    </style>
  </defs>
  <g id="Capa_1-2" data-name="Capa 1">
    <g>
      <path class="cls-2" d="M201.73,72.67c-5.3,0-10.42-.6-15.36-1.81-4.94-1.2-9.01-2.77-12.2-4.7l6.87-15.54c3.01,1.75,6.37,3.15,10.07,4.2,3.7,1.05,7.3,1.58,10.8,1.58,2.05,0,3.66-.14,4.83-.41,1.17-.27,2.03-.66,2.58-1.17.54-.51.81-1.13.81-1.85,0-1.14-.63-2.05-1.9-2.71-1.27-.66-2.94-1.22-5.01-1.67-2.08-.45-4.35-.93-6.82-1.45-2.47-.51-4.96-1.19-7.45-2.03-2.5-.84-4.79-1.96-6.87-3.34-2.08-1.39-3.75-3.21-5.01-5.47s-1.9-5.07-1.9-8.45c0-3.92,1.1-7.48,3.3-10.71,2.2-3.22,5.48-5.8,9.85-7.73,4.37-1.93,9.8-2.89,16.31-2.89,4.28,0,8.49.45,12.65,1.35,4.16.9,7.89,2.29,11.2,4.16l-6.42,15.45c-3.13-1.57-6.16-2.74-9.08-3.52-2.92-.78-5.77-1.17-8.54-1.17-2.05,0-3.67.18-4.88.54-1.21.36-2.06.84-2.58,1.45-.51.6-.77,1.26-.77,1.99,0,1.08.63,1.94,1.9,2.58,1.27.63,2.94,1.16,5.01,1.58,2.08.42,4.37.87,6.87,1.36,2.5.48,4.98,1.15,7.45,1.99,2.47.84,4.74,1.96,6.82,3.34,2.08,1.39,3.75,3.19,5.01,5.42,1.27,2.23,1.9,5,1.9,8.31,0,3.86-1.1,7.39-3.3,10.62-2.2,3.22-5.47,5.81-9.8,7.77s-9.79,2.94-16.35,2.94Z"/>
      <path class="cls-2" d="M228.66,71.22l27.65-63.25h20.96l27.65,63.25h-22.05l-20.42-53.13h8.31l-20.42,53.13h-21.69ZM245.1,60.2l5.42-15.36h29.09l5.42,15.36h-39.94Z"/>
      <path class="cls-2" d="M306.36,71.22V7.98h33.79c8.73,0,15.18,1.55,19.33,4.65,4.16,3.1,6.23,7.06,6.23,11.88,0,3.19-.89,6.04-2.67,8.54-1.78,2.5-4.35,4.47-7.73,5.92-3.37,1.45-7.53,2.17-12.47,2.17l1.81-4.88c4.94,0,9.2.69,12.79,2.08,3.58,1.39,6.35,3.39,8.31,6.01,1.96,2.62,2.94,5.77,2.94,9.44,0,5.48-2.27,9.76-6.82,12.83-4.55,3.07-11.19,4.61-19.92,4.61h-35.6ZM327.32,56.32h12.83c2.35,0,4.11-.42,5.29-1.26,1.17-.84,1.76-2.08,1.76-3.7s-.59-2.86-1.76-3.7c-1.18-.84-2.94-1.27-5.29-1.27h-14.28v-14.1h11.38c2.41,0,4.17-.41,5.29-1.22,1.11-.81,1.67-1.97,1.67-3.48s-.56-2.74-1.67-3.52c-1.12-.78-2.88-1.17-5.29-1.17h-9.94v33.43Z"/>
      <path class="cls-2" d="M407.47,72.67c-5.18,0-9.96-.81-14.32-2.44-4.37-1.63-8.15-3.93-11.34-6.91-3.19-2.98-5.68-6.49-7.45-10.53-1.78-4.04-2.67-8.43-2.67-13.19s.89-9.23,2.67-13.24c1.78-4.01,4.26-7.5,7.45-10.48,3.19-2.98,6.97-5.29,11.34-6.91,4.37-1.63,9.11-2.44,14.23-2.44s9.94.81,14.28,2.44,8.1,3.93,11.29,6.91c3.19,2.98,5.68,6.48,7.45,10.48,1.78,4.01,2.67,8.42,2.67,13.24s-.89,9.16-2.67,13.19c-1.78,4.04-4.26,7.54-7.45,10.53-3.19,2.98-6.96,5.29-11.29,6.91s-9.07,2.44-14.19,2.44ZM407.38,55.41c1.99,0,3.84-.36,5.56-1.08,1.72-.72,3.22-1.76,4.52-3.12,1.29-1.36,2.3-3.01,3.03-4.97.72-1.96,1.08-4.17,1.08-6.64s-.36-4.68-1.08-6.64c-.72-1.96-1.73-3.61-3.03-4.97-1.3-1.36-2.8-2.39-4.52-3.12-1.72-.72-3.57-1.08-5.56-1.08s-3.84.36-5.56,1.08c-1.72.72-3.22,1.76-4.52,3.12-1.3,1.35-2.3,3.01-3.03,4.97-.72,1.96-1.08,4.17-1.08,6.64s.36,4.68,1.08,6.64c.72,1.96,1.73,3.61,3.03,4.97,1.29,1.35,2.8,2.39,4.52,3.12,1.72.72,3.57,1.08,5.56,1.08Z"/>
      <path class="cls-2" d="M448.85,71.22V7.98h29.54c9.7,0,17.08,2.14,22.14,6.42,5.06,4.28,7.59,10.09,7.59,17.44,0,4.88-1.17,9.08-3.52,12.6-2.35,3.52-5.68,6.22-9.98,8.09-4.31,1.87-9.41,2.8-15.31,2.8h-18.61l9.49-8.76v24.67h-21.32ZM470.17,48.91l-9.49-9.67h17.26c2.95,0,5.13-.66,6.55-1.99,1.41-1.32,2.12-3.13,2.12-5.42s-.71-4.1-2.12-5.42c-1.42-1.32-3.6-1.99-6.55-1.99h-17.26l9.49-9.67v34.15ZM486.71,71.22l-15.54-23.04h22.59l15.72,23.04h-22.77Z"/>
      <path class="cls-2" d="M208.42,142.67c-9.7,0-17.26-2.62-22.68-7.86-5.42-5.24-8.13-12.59-8.13-22.05v-34.79h21.32v34.15c0,4.82.87,8.24,2.62,10.25,1.75,2.02,4.1,3.03,7.05,3.03s5.38-1.01,7.09-3.03c1.72-2.02,2.58-5.44,2.58-10.25v-34.15h20.96v34.79c0,9.46-2.71,16.81-8.13,22.05s-12.98,7.86-22.68,7.86Z"/>
      <path class="cls-2" d="M247,141.22v-63.25h29.55c9.7,0,17.08,2.14,22.14,6.42,5.06,4.28,7.59,10.09,7.59,17.44,0,4.88-1.17,9.08-3.52,12.6-2.35,3.52-5.68,6.22-9.98,8.09-4.31,1.87-9.41,2.8-15.32,2.8h-18.61l9.49-8.76v24.67h-21.32ZM268.32,118.91l-9.49-9.67h17.26c2.95,0,5.13-.66,6.55-1.99,1.42-1.32,2.12-3.13,2.12-5.42s-.71-4.1-2.12-5.42c-1.42-1.32-3.6-1.99-6.55-1.99h-17.26l9.49-9.67v34.15ZM284.86,141.22l-15.54-23.04h22.59l15.72,23.04h-22.77Z"/>
      <path class="cls-2" d="M312.32,141.22v-63.25h33.79c8.73,0,15.18,1.55,19.34,4.65,4.16,3.1,6.23,7.06,6.23,11.88,0,3.19-.89,6.04-2.67,8.54s-4.35,4.47-7.72,5.92c-3.37,1.45-7.53,2.17-12.47,2.17l1.81-4.88c4.94,0,9.2.69,12.79,2.08,3.58,1.39,6.35,3.39,8.31,6.01,1.96,2.62,2.94,5.77,2.94,9.44,0,5.48-2.28,9.76-6.82,12.83-4.55,3.07-11.19,4.61-19.92,4.61h-35.6ZM333.29,126.32h12.83c2.35,0,4.11-.42,5.29-1.26,1.17-.84,1.76-2.08,1.76-3.71s-.59-2.86-1.76-3.7c-1.17-.84-2.94-1.27-5.29-1.27h-14.28v-14.09h11.38c2.41,0,4.17-.41,5.29-1.22,1.11-.81,1.67-1.97,1.67-3.48s-.56-2.74-1.67-3.52c-1.12-.78-2.88-1.17-5.29-1.17h-9.94v33.43Z"/>
      <path class="cls-2" d="M373.31,141.22l27.65-63.25h20.96l27.65,63.25h-22.05l-20.42-53.13h8.31l-20.42,53.13h-21.68ZM389.76,130.2l5.42-15.36h29.09l5.42,15.36h-39.94Z"/>
      <path class="cls-2" d="M451.02,141.22v-63.25h17.53l32.17,38.49h-8.13v-38.49h20.78v63.25h-17.53l-32.17-38.49h8.13v38.49h-20.78Z"/>
      <path class="cls-2" d="M554.92,142.67c-5.18,0-9.96-.81-14.32-2.44-4.37-1.63-8.15-3.93-11.34-6.91-3.19-2.98-5.68-6.49-7.45-10.53-1.78-4.04-2.67-8.43-2.67-13.19s.89-9.23,2.67-13.24c1.78-4,4.26-7.5,7.45-10.48,3.19-2.98,6.97-5.29,11.34-6.91,4.37-1.63,9.11-2.44,14.23-2.44s9.94.81,14.28,2.44c4.34,1.63,8.1,3.93,11.29,6.91,3.19,2.98,5.68,6.48,7.45,10.48,1.78,4.01,2.67,8.42,2.67,13.24s-.89,9.16-2.67,13.19c-1.78,4.04-4.26,7.54-7.45,10.53-3.19,2.98-6.96,5.29-11.29,6.91-4.34,1.63-9.07,2.44-14.19,2.44ZM554.83,125.41c1.99,0,3.84-.36,5.56-1.08,1.72-.72,3.22-1.76,4.52-3.12,1.29-1.35,2.3-3.01,3.03-4.97.72-1.96,1.08-4.17,1.08-6.64s-.36-4.68-1.08-6.64c-.72-1.96-1.73-3.61-3.03-4.97-1.3-1.36-2.8-2.39-4.52-3.12s-3.57-1.08-5.56-1.08-3.84.36-5.56,1.08-3.22,1.76-4.52,3.12c-1.3,1.36-2.3,3.01-3.03,4.97-.72,1.96-1.08,4.17-1.08,6.64s.36,4.68,1.08,6.64c.72,1.96,1.73,3.61,3.03,4.97,1.29,1.36,2.8,2.39,4.52,3.12,1.72.72,3.57,1.08,5.56,1.08Z"/>
    </g>
    <path class="cls-1" d="M133,136.8H19c-10.48,0-19-8.52-19-19s8.52-19,19-19h114c10.48,0,19,8.52,19,19s-8.52,19-19,19ZM19,114c-2.1,0-3.8,1.7-3.8,3.8s1.7,3.8,3.8,3.8h114c2.1,0,3.8-1.7,3.8-3.8s-1.7-3.8-3.8-3.8H19ZM76,90.18c-5.44,0-10.71-1.95-14.84-5.49l-6.82-5.84c-2.87-2.46-7.03-2.46-9.89,0l-6.29,5.39c-8.91,7.63-22.04,7.3-30.54-.78l-5.25-4.99c-3.04-2.89-3.17-7.7-.28-10.74,2.89-3.04,7.7-3.17,10.74-.28l5.25,4.99c2.83,2.69,7.21,2.8,10.18.26l6.29-5.39c4.13-3.54,9.4-5.49,14.84-5.49s10.71,1.95,14.84,5.49l6.82,5.84c2.87,2.46,7.03,2.46,9.89,0l6.82-5.84c4.13-3.54,9.4-5.49,14.84-5.49s10.71,1.95,14.84,5.49l6.29,5.39c2.97,2.54,7.35,2.43,10.18-.26l5.26-4.99c3.04-2.89,7.85-2.77,10.74.28,2.89,3.04,2.77,7.85-.28,10.74l-5.25,4.99c-8.5,8.08-21.63,8.41-30.54.78l-6.29-5.39c-2.87-2.46-7.03-2.46-9.89,0l-6.82,5.84c-4.13,3.54-9.4,5.49-14.84,5.49ZM129.2,53.2H22.8c-7.41,0-14.27-3.78-17.48-9.63-2.82-5.16-2.55-11.09.76-16.27C14.04,14.85,32.63,0,76,0s61.96,14.85,69.91,27.3c3.31,5.18,3.59,11.11.76,16.27-3.21,5.85-10.07,9.63-17.48,9.63ZM76,15.2c-16.87,0-30.66,2.41-41,7.16-7.25,3.33-12.66,7.74-16.1,13.13-.29.45-.29.66-.29.66.07.47,1.63,1.85,4.2,1.85h106.4c2.57,0,4.13-1.38,4.2-1.85,0,0,0-.21-.29-.66-3.44-5.38-8.86-9.8-16.1-13.13-10.34-4.75-24.13-7.16-41-7.16Z"/>
  </g>
</svg>